<svg xmlns = "http://www.w3.org/2000/svg" viewBox = "0 0 28.5 12.5" width = "285" height = "125">
	<defs>
		<style>
			@font-face {
				font-family: "Hall Fetica Decompose";
				font-style: normal;
				font-weight: normal;
				font-stretch: normal;
				font-unicode-range: U+0-10FFFF;
				font-variant: normal;
				font-feature-settings: normal;

				src: url("../fonts/Hall Fetica Decompose.ttf");
			}
		</style>

		<style>
			#Score {
				paint-order: stroke;
				stroke-linejoin: round;

				fill: white;
				stroke: rgb(54, 194, 189);

				font: 10.5px "Hall Fetica Decompose";
				text-decoration: underline;
			}

			#Score_Mark {
				paint-order: stroke;
				stroke-linejoin: round;

				fill: rgb(255, 102, 51);
				stroke: rgb(186, 218, 85);
				stroke-width: 20px;
			}
		</style>
	</defs>

	<g>
		<path id = "Score_Mark" transform = "matrix(0.035, 0, 0, -0.035, -2.0, 21.85)" d = "M 207.386 445.948 L 228.614 445.948 L 233.301 476.71 A 57.368 57.368 0 0 1 246.277 482.085 L 271.343 463.647 L 286.353 478.657 L 267.915 503.723 A 57.368 57.368 0 0 1 273.29 516.699 L 304.052 521.386 L 304.052 542.614 L 273.29 547.301 A 57.368 57.368 0 0 1 267.915 560.277 L 286.353 585.343 L 271.343 600.353 L 246.277 581.915 A 57.368 57.368 0 0 1 233.301 587.29 L 228.614 618.052 L 207.386 618.052 L 202.699 587.29 A 57.368 57.368 0 0 1 189.723 581.915 L 164.657 600.353 L 149.647 585.343 L 168.085 560.277 A 57.368 57.368 0 0 1 162.71 547.301 L 131.948 542.614 L 131.948 521.386 L 162.71 516.699 A 57.368 57.368 0 0 1 168.085 503.723 L 149.647 478.657 L 164.657 463.647 L 189.723 482.085 A 57.368 57.368 0 0 1 202.699 476.71 Z M 218 503.316 A 28.684 28.684 0 0 0 218 560.684 A 28.684 28.684 0 0 0 218 503.316">
		</path>

		<text id = "Score" x = "0" y = "10">Score</text>
	</g>
</svg>